<?xml version="1.0" encoding="UTF-8"?>
<svg id="Layer_2" data-name="Layer 2" xmlns="http://www.w3.org/2000/svg" xmlns:xlink="http://www.w3.org/1999/xlink" viewBox="0 0 300 609.3">
  <defs>
    <style>
      .cls-1 {
        fill: #524b48;
      }

      .cls-2 {
        fill: #88817f;
      }

      .cls-3 {
        fill: #0046ff;
      }

      .cls-4 {
        fill: url(#linear-gradient);
      }
    </style>
    <linearGradient id="linear-gradient" x1="-24.61" y1="378.93" x2="187.88" y2="10.88" gradientUnits="userSpaceOnUse">
      <stop offset="0" stop-color="#b4e50d"/>
      <stop offset="1" stop-color="#00652e"/>
    </linearGradient>
  </defs>
  <g id="Layer_1-2" data-name="Layer 1">
    <g>
      <g>
        <path class="cls-1" d="M73.39,514.22v-12.32h24.8v-15.1h-24.8v-11.49h27.28v-15.3h-43.16v69.47h43.66v-15.26h-27.78Z"/>
        <path class="cls-1" d="M168.9,469.07c-7.03-6.95-15.55-10.42-25.64-10.42s-18.56,3.47-25.59,10.42c-6.99,6.94-10.5,15.5-10.5,25.67s3.51,18.78,10.5,25.72c7.03,6.95,15.55,10.42,25.59,10.42s18.61-3.47,25.64-10.42c6.99-6.94,10.5-15.5,10.5-25.72s-3.51-18.73-10.5-25.67ZM157.74,509.63c-3.89,3.84-8.69,5.75-14.48,5.75s-10.54-1.91-14.43-5.75c-3.84-3.85-5.78-8.81-5.78-14.89s1.94-11.04,5.78-14.88c3.89-3.85,8.69-5.75,14.43-5.75s10.59,1.9,14.48,5.75c3.84,3.84,5.78,8.81,5.78,14.88s-1.94,11.04-5.78,14.89Z"/>
        <path class="cls-1" d="M222.3,461.02v36.61l-26.02-36.61h-10.38v67.45h14.23v-36.62l26.02,36.62h10.38v-67.45h-14.23Z"/>
        <path class="cls-1" d="M23.02,514.22v-54.21H7.14v69.47h40.69v-15.26h-24.81Z"/>
      </g>
      <g>
        <g>
          <path class="cls-3" d="M247.62,205.96h0c0,50.33-26.85,96.83-70.43,122l-63.71,36.78-81.33,46.96h0c0-50.33,26.85-96.83,70.44-122l145.04-83.74Z"/>
          <path class="cls-3" d="M0,0h0c43.58,25.16,70.43,71.67,70.43,122v73.57s0,93.91,0,93.91h0C26.85,264.31,0,217.81,0,167.48V0Z"/>
          <path class="cls-3" d="M300,75.61h0c0,50.33-26.85,96.83-70.43,122l-63.71,36.78-81.33,46.96h0c0-50.33,26.85-96.83,70.44-122l145.04-83.74Z"/>
        </g>
        <g>
          <path class="cls-4" d="M247.62,205.96h0c0,50.33-26.85,96.83-70.43,122l-63.71,36.78-81.33,46.96h0c0-50.33,26.85-96.83,70.44-122l145.04-83.74Z"/>
          <path class="cls-4" d="M0,0h0c43.58,25.16,70.43,71.67,70.43,122v73.57s0,93.91,0,93.91h0C26.85,264.31,0,217.81,0,167.48V0Z"/>
          <path class="cls-4" d="M300,75.61h0c0,50.33-26.85,96.83-70.43,122l-63.71,36.78-81.33,46.96h0c0-50.33,26.85-96.83,70.44-122l145.04-83.74Z"/>
        </g>
      </g>
      <g>
        <polygon class="cls-2" points="40.03 553.54 11.63 553.54 11.63 577.27 39.01 577.27 39.01 581.51 11.63 581.51 11.63 608.63 7.14 608.63 7.14 549.3 40.03 549.3 40.03 553.54"/>
        <path class="cls-2" d="M168.2,558.11c-5.79-5.83-12.87-8.79-21.25-8.79s-15.43,2.96-21.22,8.79c-5.83,5.83-8.74,12.91-8.74,21.21s2.91,15.34,8.74,21.21c5.79,5.83,12.88,8.75,21.22,8.75s15.46-2.92,21.25-8.75c5.83-5.87,8.74-12.91,8.74-21.21s-2.91-15.38-8.74-21.21ZM165.08,597.54c-4.94,5.02-10.97,7.53-18.13,7.53s-13.16-2.51-18.14-7.53c-4.94-5.02-7.41-11.1-7.41-18.22s2.47-13.2,7.41-18.22c4.98-5.02,11.01-7.49,18.14-7.49s13.19,2.47,18.13,7.49c4.98,5.02,7.45,11.05,7.45,18.22s-2.47,13.2-7.45,18.22Z"/>
        <path class="cls-2" d="M101.77,558.09c-5.83-5.83-12.92-8.79-21.26-8.79s-15.44,2.96-21.27,8.79c-5.79,5.83-8.71,12.92-8.71,21.23s2.92,15.35,8.71,21.23c5.83,5.83,12.92,8.75,21.27,8.75s15.43-2.92,21.26-8.75c5.8-5.88,8.71-12.93,8.71-21.23s-2.91-15.4-8.71-21.23ZM98.65,597.55c-4.94,5.02-11.01,7.53-18.14,7.53s-13.21-2.51-18.15-7.53c-4.94-5.03-7.46-11.1-7.46-18.23s2.52-13.21,7.46-18.23c4.94-5.02,11.02-7.49,18.15-7.49s13.2,2.47,18.14,7.49c4.95,5.02,7.46,11.06,7.46,18.23s-2.51,13.2-7.46,18.23Z"/>
        <path class="cls-2" d="M208.98,608.16h0c7.96,0,14.54-2.82,19.75-8.47,5.2-5.65,7.8-12.56,7.8-20.74s-2.6-15.1-7.8-20.75c-5.21-5.64-11.79-8.47-19.75-8.47h-22.67v58.43h22.67ZM225.68,596.77c-4.34,4.81-9.91,7.22-16.7,7.22h-18.25v-50.09h18.25c6.79,0,12.36,2.41,16.7,7.23,4.34,4.81,6.51,10.75,6.51,17.82s-2.17,13.01-6.51,17.82Z"/>
      </g>
    </g>
  </g>
</svg>